<svg xmlns="http://www.w3.org/2000/svg" xmlns:xlink="http://www.w3.org/1999/xlink" width="84" height="84" viewBox="0 0 84 84">
  <defs>
    <style>
      .cls-1 {
        fill: none;
      }

      .cls-2 {
        fill: #fff;
        stroke: #000;
      }

      .cls-3 {
        clip-path: url(#clip-path);
      }

      .cls-4 {
        stroke: none;
      }

      .cls-5 {
        filter: url(#Ellipse_12);
      }
    </style>
    <filter id="Ellipse_12" x="0" y="0" width="84" height="84" filterUnits="userSpaceOnUse">
      <feOffset dy="3" input="SourceAlpha"/>
      <feGaussianBlur stdDeviation="3" result="blur"/>
      <feFlood flood-opacity="0.161"/>
      <feComposite operator="in" in2="blur"/>
      <feComposite in="SourceGraphic"/>
    </filter>
    <clipPath id="clip-path">
      <rect id="Rectangle_38" data-name="Rectangle 38" class="cls-1" width="45.788" height="37.758"/>
    </clipPath>
  </defs>
  <g id="Group_73" data-name="Group 73" transform="translate(-250 -237)">
    <g class="cls-5" transform="matrix(1, 0, 0, 1, 250, 237)">
      <g id="Ellipse_12-2" data-name="Ellipse 12" class="cls-2" transform="translate(9 6)">
        <circle class="cls-4" cx="33" cy="33" r="33"/>
        <circle class="cls-1" cx="33" cy="33" r="32.5"/>
      </g>
    </g>
    <g id="Group_67" data-name="Group 67" transform="translate(269 257)">
      <g id="Group_66" data-name="Group 66" class="cls-3">
        <path id="Path_20" data-name="Path 20" d="M9.892,37.755H2.654V2.974c-.193.083-.34.16-.494.211A1.647,1.647,0,0,1,.215,2.442,1.634,1.634,0,0,1,2.624.334a1.059,1.059,0,0,0,.715.232Q15.7.559,28.066.562q7.21,0,14.421,0a.962.962,0,0,0,.648-.212A1.635,1.635,0,0,1,45.5,2.561a1.655,1.655,0,0,1-2.1.532c-.073-.034-.148-.063-.269-.114v34.78H35.96c0-.587-.021-1.156,0-1.724a42.623,42.623,0,0,1,2.859-13.552.319.319,0,0,0-.148-.46,19.975,19.975,0,0,1-7.361-9.53,26.749,26.749,0,0,1-1.722-9.444c0-.29-.1-.358-.373-.357Q22.884,2.7,16.55,2.7c-.1,0-.207.014-.328.023-.032.7-.055,1.374-.1,2.049a25.018,25.018,0,0,1-1.738,7.966,19.881,19.881,0,0,1-7.4,9.374,1.277,1.277,0,0,0-.119.106A43.168,43.168,0,0,1,9.648,33.608c.138,1.361.164,2.734.244,4.148M15.568,2.72c-.173-.012-.266-.023-.36-.023q-5.777,0-11.554-.008c-.3,0-.351.112-.351.375,0,3.243-.012,6.486-.012,9.729,0,2.862.011,5.723.017,8.585,0,.127,0,.254,0,.418.736,0,1.43-.048,2.113.014a2.408,2.408,0,0,0,1.708-.568,19.24,19.24,0,0,0,5.45-6.219A23.906,23.906,0,0,0,15.45,5.179c.066-.805.079-1.615.118-2.459M42.482,21.795V10.836c0-2.588,0-5.176.006-7.764,0-.3-.085-.383-.383-.382q-5.76.014-11.52,0c-.293,0-.372.1-.354.37.049.749.059,1.5.122,2.25a23.975,23.975,0,0,0,2.213,8.461,18.908,18.908,0,0,0,6.626,7.812.955.955,0,0,0,.445.2c.928.019,1.855.009,2.845.009m-39.173,8c0,2.314.006,4.627-.007,6.941,0,.313.081.4.4.4,1.681-.016,3.363-.021,5.044,0,.385.005.472-.123.439-.469-.178-1.825-.272-3.663-.533-5.475a39.478,39.478,0,0,0-2.26-8.408.463.463,0,0,0-.524-.353c-.715.021-1.431.025-2.146,0-.328-.01-.421.088-.42.419.014,2.313.007,4.626.007,6.939m39.173-.026c0-2.313,0-4.625.005-6.938,0-.286-.066-.4-.376-.393-.739.02-1.479.018-2.217,0a.433.433,0,0,0-.493.343c-.385,1.177-.82,2.34-1.167,3.527A39.687,39.687,0,0,0,36.6,36.732c-.006.309.071.408.394.405q2.54-.024,5.08,0c.343,0,.415-.112.414-.429-.012-2.313-.006-4.627-.006-6.94m2.64-28.119A.98.98,0,0,0,44.5.727.93.93,0,0,0,43.429.98a.669.669,0,0,1-.609.26q-4.991-.01-9.982,0-14.991,0-29.982-.008a.687.687,0,0,1-.439-.21A1,1,0,0,0,.952.946a.964.964,0,0,0,0,1.38,1,1,0,0,0,1.463-.074.694.694,0,0,1,.443-.2c1.228-.016,2.456-.009,3.685-.009q18.139,0,36.278,0a.682.682,0,0,1,.613.256.911.911,0,0,0,1.075.245.977.977,0,0,0,.61-.891" transform="translate(-0.001 0)"/>
        <path id="Path_21" data-name="Path 21" d="M40.328,22.679A21.171,21.171,0,0,1,34.253,38.61a42.989,42.989,0,0,0,3.892-7.64,38.129,38.129,0,0,0,2.183-8.291" transform="translate(-28.067 -18.583)"/>
        <path id="Path_22" data-name="Path 22" d="M25.618,38.189a72.842,72.842,0,0,0,3.226-15.845,25.755,25.755,0,0,1-3.226,15.845" transform="translate(-20.992 -18.309)"/>
        <path id="Path_23" data-name="Path 23" d="M191.549,38.323a21.192,21.192,0,0,1-6.059-15.966c.284,1.394.509,2.8.869,4.177a39.586,39.586,0,0,0,1.318,4.113,41.3,41.3,0,0,0,1.751,3.91c.651,1.283,1.409,2.512,2.12,3.765" transform="translate(-151.97 -18.32)"/>
        <path id="Path_24" data-name="Path 24" d="M209.133,22.559a68.962,68.962,0,0,0,3.307,15.889c-.794-.762-2.441-5.075-2.971-7.677a23.72,23.72,0,0,1-.335-8.211" transform="translate(-171.188 -18.485)"/>
        <path id="Path_25" data-name="Path 25" d="M29.968,134.019a19.574,19.574,0,0,1,1.413,11.618l-1.413-11.618" transform="translate(-24.556 -109.817)"/>
        <path id="Path_26" data-name="Path 26" d="M215.716,133.97l-1.428,11.761a19.966,19.966,0,0,1,1.428-11.761" transform="translate(-175.342 -109.776)"/>
      </g>
    </g>
  </g>
</svg>
