<svg xmlns="http://www.w3.org/2000/svg" xmlns:xlink="http://www.w3.org/1999/xlink" width="66" height="66" viewBox="0 0 66 66">
  <defs>
    <style>
      .cls-1 {
        fill: none;
      }

      .cls-2 {
        fill: silver;
      }

      .cls-3 {
        clip-path: url(#clip-path);
      }

      .cls-4, .cls-5 {
        stroke: none;
      }

      .cls-5 {
        fill: #050505;
      }
    </style>
    <clipPath id="clip-path">
      <rect id="Rectangle_37" data-name="Rectangle 37" class="cls-1" width="25" height="48.671"/>
    </clipPath>
  </defs>
  <g id="Group_74" data-name="Group 74" transform="translate(-49 -247)">
    <g id="Path_57" data-name="Path 57" class="cls-2" transform="translate(49 247)">
      <path class="cls-4" d="M 33 65.5 C 28.6123104095459 65.5 24.35613059997559 64.64077758789063 20.34968948364258 62.94618988037109 C 16.47966957092285 61.30931854248047 13.00393962860107 58.96588134765625 10.01902961730957 55.9809684753418 C 7.034130096435547 52.99607086181641 4.690690040588379 49.52032852172852 3.053809881210327 45.65031051635742 C 1.359220027923584 41.64387130737305 0.5 37.38769149780273 0.5 33 C 0.5 28.6123104095459 1.359220027923584 24.35613059997559 3.053809881210327 20.34968948364258 C 4.690690040588379 16.47966957092285 7.034130096435547 13.00393962860107 10.01902961730957 10.01902961730957 C 13.00393962860107 7.034130096435547 16.47966957092285 4.690690040588379 20.34968948364258 3.053809881210327 C 24.35613059997559 1.359220027923584 28.6123104095459 0.5 33 0.5 C 37.38769149780273 0.5 41.64387130737305 1.359220027923584 45.65031051635742 3.053809881210327 C 49.52032852172852 4.690690040588379 52.99607086181641 7.034130096435547 55.9809684753418 10.01902961730957 C 58.96588134765625 13.00393962860107 61.30931854248047 16.47966957092285 62.94618988037109 20.34968948364258 C 64.64077758789063 24.35613059997559 65.5 28.6123104095459 65.5 33 C 65.5 37.38769149780273 64.64077758789063 41.64387130737305 62.94618988037109 45.65031051635742 C 61.30931854248047 49.52032852172852 58.96588134765625 52.99607086181641 55.9809684753418 55.9809684753418 C 52.99607086181641 58.96588134765625 49.52032852172852 61.30931854248047 45.65031051635742 62.94618988037109 C 41.64387130737305 64.64077758789063 37.38769149780273 65.5 33 65.5 Z"/>
      <path class="cls-5" d="M 33 1 C 28.67958831787109 1 24.48894119262695 1.845939636230469 20.54446029663086 3.514308929443359 C 16.73403930664063 5.125980377197266 13.31172943115234 7.433441162109375 10.37258148193359 10.37258148193359 C 7.433441162109375 13.31172943115234 5.125980377197266 16.73403930664063 3.514308929443359 20.54446029663086 C 1.845939636230469 24.48894119262695 1 28.67958831787109 1 33 C 1 37.32041168212891 1.845939636230469 41.51106262207031 3.514308929443359 45.45552825927734 C 5.125980377197266 49.26594924926758 7.433441162109375 52.68827056884766 10.37258148193359 55.62741088867188 C 13.31172943115234 58.56655883789063 16.73403930664063 60.87401962280273 20.54446029663086 62.48569107055664 C 24.48894119262695 64.15406036376953 28.67958831787109 65 33 65 C 37.32041168212891 65 41.51106262207031 64.15406036376953 45.45552825927734 62.48569107055664 C 49.26594924926758 60.87401962280273 52.68827056884766 58.56655883789063 55.62741088867188 55.62741088867188 C 58.56655883789063 52.68827056884766 60.87401962280273 49.26594924926758 62.48569107055664 45.45552825927734 C 64.15406036376953 41.51106262207031 65 37.32041168212891 65 33 C 65 28.67958831787109 64.15406036376953 24.48894119262695 62.48569107055664 20.54446029663086 C 60.87401962280273 16.73403930664063 58.56655883789063 13.31172943115234 55.62741088867188 10.37258148193359 C 52.68827056884766 7.433441162109375 49.26594924926758 5.125980377197266 45.45552825927734 3.514308929443359 C 41.51106262207031 1.845939636230469 37.32041168212891 1 33 1 M 33 0 C 51.22539138793945 0 66 14.77460098266602 66 33 C 66 51.22539138793945 51.22539138793945 66 33 66 C 14.77460098266602 66 0 51.22539138793945 0 33 C 0 14.77460098266602 14.77460098266602 0 33 0 Z"/>
    </g>
    <g id="Group_65" data-name="Group 65" transform="translate(70 256)">
      <g id="Group_64" data-name="Group 64" class="cls-3">
        <path id="Path_19" data-name="Path 19" d="M25,4.344c0-2.829-1.515-4.338-4.343-4.341Q12.542-.005,4.431,0C1.432,0,0,1.439,0,4.455q0,9.925,0,19.85Q0,34.344,0,44.382c0,2.8,1.47,4.276,4.255,4.281q8.225.015,16.449,0c2.748,0,4.288-1.536,4.289-4.281Q25,24.364,25,4.344M15.883,2.381q0,.134,0,.268H9.1L9.1,2.381Zm7.422,41.83H1.709V4.415h21.6Z" transform="translate(0 0)"/>
      </g>
    </g>
  </g>
</svg>
