  <svg id="Layer_1" data-name="Layer 1" xmlns="http://www.w3.org/2000/svg" viewBox="0 0 352.77 352.77"
                            style="width: 26px; margin-right: 20px;">
                            <defs> <style>.cls-1{fill:#fff;}</style></defs>
                            <path style="fill: transparent;" d="M72.09,164.81H424.85V517.57H72.09Zm302.4,68.39c-2.37-2.45-4.58-4.76-6.82-7-47.84-48.68-116.48-63.32-179.89-38.37-60.1,23.64-103,85.63-102.81,149,0,2.9,3.22,5.78,4.93,8.67,2-2.66,5.19-5.09,5.77-8,1.34-6.83,1-14,2.08-20.88,11-72.33,73.05-127.91,147-129.56,48.1-1.07,87.94,16.93,120.69,52.79l-18.14,15,54,22.11c-2.71-20.39-5.15-38.64-7.73-58.05ZM106.86,463.75l19.26-14.57c2,2.23,3.74,4.23,5.58,6.1a164.45,164.45,0,0,0,257.62-28.71c15.45-24.85,23.3-52.07,24.36-81.17.13-3.37-3.26-6.86-5-10.3-2,3.28-5,6.33-5.88,9.89-1.18,4.73-.43,9.91-1.07,14.83-13.29,102.31-122.07,162.92-216,120.23-19.52-8.87-36.7-21.07-50.83-37.93l17.93-14.81-54.6-21.44C101.24,426,104,444.29,106.86,463.75ZM244.74,208.51c-4.57.62-13.67,1.17-22.45,3.13-57.72,12.9-97.4,57-104.11,116.36a120.22,120.22,0,0,0,9.47,61.66c1.1,2.55,5.22,3.8,7.94,5.65.61-3.27,1.31-6.53,1.79-9.82a5.64,5.64,0,0,0-.74-2.49,119,119,0,0,1-5-68.79c12.76-59.45,70.24-100.73,130.52-93.74a124.24,124.24,0,0,1,63.11,25.89c2.52,2,8.63,3.23,10.15,1.77,4.72-4.51-.36-7.45-3.56-10.3-.43-.38-.89-.75-1.35-1.11C306.53,218.26,279.42,209,244.74,208.51ZM380.93,340l2.17-.51c-3.76-15.79-7.2-31.66-11.54-47.28-.81-2.89-5.84-7.2-7.86-6.69-6.16,1.57-3.09,6.49-2.18,10.75,3.12,14.75,8.17,29.57,8.28,44.4.57,78.87-75.41,136.52-151.56,116.09a128,128,0,0,1-46.4-23.7c-2-1.55-6-.5-9.05-.65.76,3,1.37,6,2.37,8.91.33,1,1.65,1.61,2.57,2.32,21.3,16.64,45.51,26.21,72.36,28.08C316.28,477,381,416.2,380.93,340Zm-124.57,1.7c3.47-3.73,5.35-5.89,7.36-7.9q23.22-23.26,46.48-46.48c3.13-3.13,7.23-6.82,2.52-10.74-1.55-1.29-7.66.65-10,2.89-15.8,15.17-31.14,30.82-46.64,46.3-2.19,2.18-4.48,4.26-7.62,7.23-3.1-3.61-5.43-6.64-8.08-9.35-7.77-7.92-15.43-16-23.7-23.37-2.06-1.84-6.26-1.29-9.48-1.83.69,3.22.88,6.67,2.23,9.58,1.05,2.24,3.54,3.82,5.42,5.65,8.9,8.7,17.81,17.39,27.67,27-4.73,4.18-8.78,6.85-11.52,10.5-1.7,2.26-1.42,6-2,9.1,3.3-.56,7.51,0,9.68-1.91,3.61-3.1,5.91-7.73,9.16-12.27,5.84,6.11,8.67,10,12.42,12.66,2.32,1.62,6,1.26,9.12,1.79-.41-3.08.22-7-1.45-9.08C264.9,347.69,260.51,345,256.36,341.66Zm-2.23-84.08V237h-9.57v20.54Zm-92.89,78.08H140.19v9.47h21.05Zm175.81-.29c.2,3.89.36,6.89.5,9.79h20.81v-9.79Zm-92.52,93.1v20.81H254V428.47Z" transform="translate(-72.09 -164.81)"/>
                            <path class="cls-1" d="M374.49,233.2l19.12-14.28c2.58,19.41,5,37.66,7.73,58.05l-54-22.11,18.14-15C332.72,204,292.88,186,244.78,187c-74,1.65-136,57.23-147,129.56-1,6.91-.74,14.05-2.08,20.88-.58,2.94-3.77,5.37-5.77,8-1.71-2.89-4.92-5.77-4.93-8.67-.21-63.41,42.71-125.4,102.81-149,63.41-24.95,132-10.31,179.89,38.37C369.91,228.44,372.12,230.75,374.49,233.2Z" transform="translate(-72.09 -164.81)"/>
                            <path class="cls-1" d="M106.86,463.75c-2.9-19.46-5.62-37.8-8.61-57.88l54.6,21.44-17.93,14.81c14.13,16.86,31.31,29.06,50.83,37.93,93.89,42.69,202.67-17.92,216-120.23.64-4.92-.11-10.1,1.07-14.83.89-3.56,3.84-6.61,5.88-9.89,1.76,3.44,5.15,6.93,5,10.3-1.06,29.1-8.91,56.32-24.36,81.17A164.45,164.45,0,0,1,131.7,455.28c-1.84-1.87-3.54-3.87-5.58-6.1Z" transform="translate(-72.09 -164.81)"/>
                            <path class="cls-1" d="M244.74,208.51c34.68.5,61.79,9.75,85.72,28.21.46.36.92.73,1.35,1.11,3.2,2.85,8.28,5.79,3.56,10.3-1.52,1.46-7.63.19-10.15-1.77a124.24,124.24,0,0,0-63.11-25.89c-60.28-7-117.76,34.29-130.52,93.74a119,119,0,0,0,5,68.79,5.64,5.64,0,0,1,.74,2.49c-.48,3.29-1.18,6.55-1.79,9.82-2.72-1.85-6.84-3.1-7.94-5.65A120.22,120.22,0,0,1,118.18,328c6.71-59.32,46.39-103.46,104.11-116.36C231.07,209.68,240.17,209.13,244.74,208.51Z" transform="translate(-72.09 -164.81)"/>
                            <path class="cls-1" d="M380.93,340c.11,76.24-64.65,137-140.84,131.72-26.85-1.87-51.06-11.44-72.36-28.08-.92-.71-2.24-1.36-2.57-2.32-1-2.9-1.61-5.93-2.37-8.91,3.06.15,7.08-.9,9.05.65a128,128,0,0,0,46.4,23.7c76.15,20.43,152.13-37.22,151.56-116.09-.11-14.83-5.16-29.65-8.28-44.4-.91-4.26-4-9.18,2.18-10.75,2-.51,7.05,3.8,7.86,6.69,4.34,15.62,7.78,31.49,11.54,47.28Z" transform="translate(-72.09 -164.81)"/>
                            <path class="cls-1" d="M256.36,341.66c4.15,3.38,8.54,6,11.56,9.78,1.67,2.07,1,6,1.45,9.08-3.09-.53-6.8-.17-9.12-1.79-3.75-2.62-6.58-6.55-12.42-12.66-3.25,4.54-5.55,9.17-9.16,12.27-2.17,1.87-6.38,1.35-9.68,1.91.61-3.09.33-6.84,2-9.1,2.74-3.65,6.79-6.32,11.52-10.5-9.86-9.62-18.77-18.31-27.67-27-1.88-1.83-4.37-3.41-5.42-5.65-1.35-2.91-1.54-6.36-2.23-9.58,3.22.54,7.42,0,9.48,1.83,8.27,7.38,15.93,15.45,23.7,23.37,2.65,2.71,5,5.74,8.08,9.35,3.14-3,5.43-5,7.62-7.23,15.5-15.48,30.84-31.13,46.64-46.3,2.32-2.24,8.43-4.18,10-2.89,4.71,3.92.61,7.61-2.52,10.74Q287,310.52,263.72,333.76C261.71,335.77,259.83,337.93,256.36,341.66Z" transform="translate(-72.09 -164.81)"/>
                            <path class="cls-1" d="M254.13,257.58h-9.57V237h9.57Z" transform="translate(-72.09 -164.81)"/>
                            <path class="cls-1" d="M161.24,335.66v9.47H140.19v-9.47Z" transform="translate(-72.09 -164.81)"/>
                            <path class="cls-1" d="M337.05,335.37h21.31v9.79H337.55C337.41,342.26,337.25,339.26,337.05,335.37Z" transform="translate(-72.09 -164.81)"/>
                            <path class="cls-1" d="M244.53,428.47H254v20.81h-9.49Z" transform="translate(-72.09 -164.81)"/>
                        </svg>