<svg xmlns="http://www.w3.org/2000/svg" xmlns:xlink="http://www.w3.org/1999/xlink" width="66" height="66" viewBox="0 0 66 66">
  <defs>
    <style>
      .cls-1 {
        fill: none;
      }

      .cls-2 {
        fill: silver;
        stroke: #060606;
      }

      .cls-3 {
        clip-path: url(#clip-path);
      }

      .cls-4 {
        fill: #fff;
      }

      .cls-5 {
        stroke: none;
      }
    </style>
    <clipPath id="clip-path">
      <rect id="Rectangle_36" data-name="Rectangle 36" class="cls-1" width="31.173" height="43.382"/>
    </clipPath>
  </defs>
  <g id="Group_72" data-name="Group 72" transform="translate(-242 -131)">
    <g id="Ellipse_9" data-name="Ellipse 9" class="cls-2" transform="translate(242 131)">
      <circle class="cls-5" cx="33" cy="33" r="33"/>
      <circle class="cls-1" cx="33" cy="33" r="32.5"/>
    </g>
    <g id="Group_63" data-name="Group 63" transform="translate(259 142)">
      <g id="Group_62" data-name="Group 62" class="cls-3">
        <path id="Path_12" data-name="Path 12" d="M31.157,2.743C31.155.619,30.489,0,28.339,0L2.83.007C.637.008,0,.642,0,2.864Q0,12.3,0,21.736H0Q0,31.113,0,40.49c0,2.263.608,2.893,2.9,2.892q12.871-.005,25.742-.018c1.821,0,2.531-.688,2.531-2.539q.005-19.041-.015-38.082m-15.871.809a6.112,6.112,0,0,1,6.048,6.114,6.1,6.1,0,0,1-12.2-.083,6.153,6.153,0,0,1,6.151-6.031M2.674,1.348c.432.521.923.855.912,1.173s-.572.894-.81.855a1.474,1.474,0,0,1-.987-.857c-.072-.223.466-.643.885-1.171M2.347,42.125a1.361,1.361,0,0,1-.877-.915c-.048-.222.509-.8.818-.819.363-.021.75.393,1.465.82-.693.478-1.085.957-1.407.914M20.44,39.874a37.176,37.176,0,0,1-4.8,1.2,13.044,13.044,0,0,1-9.678-4.65C2.1,31.754,2.716,25.4,7.318,21.3a12.8,12.8,0,0,1,17.488.905C30.1,28,27.924,36.935,20.44,39.874m8.279,2.31c-.274-.359-.739-.705-.762-1.079-.019-.305.513-.921.761-.9.366.029.7.5,1.286.985l-1.284,1m.013-38.515c-.319-.055-.831-.613-.778-.838a1.387,1.387,0,0,1,.893-.876c.241-.051.6.471,1.161.951-.611.389-.985.813-1.277.763" transform="translate(0 0)"/>
        <path id="Path_13" data-name="Path 13" class="cls-4" d="M8.534,5.781c.432.521.923.855.912,1.173s-.572.894-.81.855a1.473,1.473,0,0,1-.987-.857c-.072-.223.466-.643.885-1.171" transform="translate(-5.86 -4.433)"/>
        <path id="Path_14" data-name="Path 14" class="cls-4" d="M121.958,173.43l-1.284,1c-.274-.359-.739-.705-.762-1.079-.019-.305.513-.921.761-.9.366.029.7.5,1.286.985" transform="translate(-91.955 -132.242)"/>
        <path id="Path_15" data-name="Path 15" class="cls-4" d="M8.58,174.067c-.694.478-1.085.957-1.407.914a1.361,1.361,0,0,1-.877-.915c-.048-.222.509-.8.818-.819.363-.021.75.393,1.466.821" transform="translate(-4.826 -132.856)"/>
        <path id="Path_16" data-name="Path 16" class="cls-4" d="M121.943,9.325c-.611.389-.985.813-1.277.763-.319-.055-.831-.613-.778-.838a1.387,1.387,0,0,1,.893-.876c.241-.051.6.471,1.161.952" transform="translate(-91.935 -6.419)"/>
        <path id="Path_17" data-name="Path 17" d="M54.2,33.448a3.47,3.47,0,1,1,.09-6.933,3.471,3.471,0,1,1-.09,6.933" transform="translate(-38.827 -20.333)"/>
        <path id="Path_18" data-name="Path 18" d="M41.348,95.349a7.591,7.591,0,1,0,7.974,7.459,7.772,7.772,0,0,0-7.974-7.459m.173,11.292a3.52,3.52,0,1,1,.018-7.037,3.526,3.526,0,0,1,3.624,3.574,3.6,3.6,0,0,1-3.642,3.463" transform="translate(-25.776 -73.119)"/>
      </g>
    </g>
  </g>
</svg>
